<?xml version="1.0" encoding="UTF-8"?>
<svg width="193px" height="144px" viewBox="0 0 193 144" version="1.1" xmlns="http://www.w3.org/2000/svg" xmlns:xlink="http://www.w3.org/1999/xlink">
    <title>Artboard</title>
    <defs>
        <rect id="path-1" x="0" y="0" width="185" height="40" rx="2"></rect>
        <filter x="-2.2%" y="-10.0%" width="104.3%" height="125.0%" filterUnits="objectBoundingBox" id="filter-2">
            <feOffset dx="0" dy="2" in="SourceAlpha" result="shadowOffsetOuter1"></feOffset>
            <feGaussianBlur stdDeviation="1" in="shadowOffsetOuter1" result="shadowBlurOuter1"></feGaussianBlur>
            <feColorMatrix values="0 0 0 0 0   0 0 0 0 0   0 0 0 0 0  0 0 0 0.24 0" type="matrix" in="shadowBlurOuter1" result="shadowMatrixOuter1"></feColorMatrix>
            <feOffset dx="0" dy="0" in="SourceAlpha" result="shadowOffsetOuter2"></feOffset>
            <feGaussianBlur stdDeviation="1" in="shadowOffsetOuter2" result="shadowBlurOuter2"></feGaussianBlur>
            <feColorMatrix values="0 0 0 0 0   0 0 0 0 0   0 0 0 0 0  0 0 0 0.12 0" type="matrix" in="shadowBlurOuter2" result="shadowMatrixOuter2"></feColorMatrix>
            <feMerge>
                <feMergeNode in="shadowMatrixOuter1"></feMergeNode>
                <feMergeNode in="shadowMatrixOuter2"></feMergeNode>
            </feMerge>
        </filter>
        <rect id="path-3" x="0" y="0" width="185" height="40" rx="2"></rect>
        <filter x="-2.2%" y="-10.0%" width="104.3%" height="125.0%" filterUnits="objectBoundingBox" id="filter-4">
            <feOffset dx="0" dy="0" in="SourceAlpha" result="shadowOffsetOuter1"></feOffset>
            <feGaussianBlur stdDeviation="1" in="shadowOffsetOuter1" result="shadowBlurOuter1"></feGaussianBlur>
            <feColorMatrix values="0 0 0 0 0   0 0 0 0 0   0 0 0 0 0  0 0 0 0.12 0" type="matrix" in="shadowBlurOuter1" result="shadowMatrixOuter1"></feColorMatrix>
            <feOffset dx="0" dy="2" in="SourceAlpha" result="shadowOffsetOuter2"></feOffset>
            <feGaussianBlur stdDeviation="1" in="shadowOffsetOuter2" result="shadowBlurOuter2"></feGaussianBlur>
            <feColorMatrix values="0 0 0 0 0   0 0 0 0 0   0 0 0 0 0  0 0 0 0.24 0" type="matrix" in="shadowBlurOuter2" result="shadowMatrixOuter2"></feColorMatrix>
            <feMerge>
                <feMergeNode in="shadowMatrixOuter1"></feMergeNode>
                <feMergeNode in="shadowMatrixOuter2"></feMergeNode>
            </feMerge>
        </filter>
        <rect id="path-5" x="0" y="0" width="185" height="40" rx="2"></rect>
        <filter x="-2.2%" y="-10.0%" width="104.3%" height="125.0%" filterUnits="objectBoundingBox" id="filter-6">
            <feOffset dx="0" dy="2" in="SourceAlpha" result="shadowOffsetOuter1"></feOffset>
            <feGaussianBlur stdDeviation="1" in="shadowOffsetOuter1" result="shadowBlurOuter1"></feGaussianBlur>
            <feColorMatrix values="0 0 0 0 0   0 0 0 0 0   0 0 0 0 0  0 0 0 0.24 0" type="matrix" in="shadowBlurOuter1" result="shadowMatrixOuter1"></feColorMatrix>
            <feOffset dx="0" dy="0" in="SourceAlpha" result="shadowOffsetOuter2"></feOffset>
            <feGaussianBlur stdDeviation="1" in="shadowOffsetOuter2" result="shadowBlurOuter2"></feGaussianBlur>
            <feColorMatrix values="0 0 0 0 0   0 0 0 0 0   0 0 0 0 0  0 0 0 0.12 0" type="matrix" in="shadowBlurOuter2" result="shadowMatrixOuter2"></feColorMatrix>
            <feMerge>
                <feMergeNode in="shadowMatrixOuter1"></feMergeNode>
                <feMergeNode in="shadowMatrixOuter2"></feMergeNode>
            </feMerge>
        </filter>
    </defs>
    <g id="Artboard" stroke="none" stroke-width="1" fill="none" fill-rule="evenodd">
        <g id="Group-2" transform="translate(4.000000, 4.000000)">
            <g id="button-bg">
                <use fill="black" fill-opacity="1" filter="url(#filter-2)" xlink:href="#path-1"></use>
                <use fill="#4285F4" fill-rule="evenodd" xlink:href="#path-1"></use>
            </g>
            <path d="M54.4023438,25.1367188 C55.4915365,25.1367188 56.3540039,24.8917643 56.9897461,24.4018555 C57.6254883,23.9119466 57.9433594,23.2522786 57.9433594,22.4228516 C57.9433594,21.9124349 57.8339844,21.4669596 57.6152344,21.0864258 C57.3964844,20.7058919 57.0524089,20.3686523 56.5830078,20.074707 C56.1136068,19.7807617 55.4915365,19.5187174 54.7167969,19.2885742 C53.9420573,19.058431 53.3860677,18.8214518 53.0488281,18.5776367 C52.7115885,18.3338216 52.5429688,18.0296224 52.5429688,17.6650391 C52.5429688,17.2320964 52.699056,16.8948568 53.0112305,16.6533203 C53.3234049,16.4117839 53.7620443,16.2910156 54.3271484,16.2910156 C54.9332682,16.2910156 55.3992513,16.4379883 55.7250977,16.7319336 C56.050944,17.0258789 56.2138672,17.4326172 56.2138672,17.9521484 L56.2138672,17.9521484 L57.9365234,17.9521484 C57.9365234,17.3779297 57.7815755,16.8549805 57.4716797,16.3833008 C57.1617839,15.9116211 56.7356771,15.5481771 56.1933594,15.2929688 C55.6510417,15.0377604 55.0335286,14.9101562 54.3408203,14.9101562 C53.2972005,14.9101562 52.4484049,15.1699219 51.7944336,15.6894531 C51.1404622,16.2089844 50.8134766,16.8697917 50.8134766,17.671875 C50.8134766,18.5878906 51.2669271,19.3307292 52.1738281,19.9003906 C52.6477865,20.1966146 53.2858073,20.4654948 54.0878906,20.7070312 C54.889974,20.9485677 55.4448242,21.1878255 55.7524414,21.4248047 C56.0600586,21.6617839 56.2138672,21.9990234 56.2138672,22.4365234 C56.2138672,22.8375651 56.0623372,23.1599935 55.7592773,23.4038086 C55.4562174,23.6476237 55.0039062,23.7695312 54.4023438,23.7695312 C53.7050781,23.7695312 53.1695964,23.6145833 52.7958984,23.3046875 C52.4222005,22.9947917 52.2353516,22.5572917 52.2353516,21.9921875 L52.2353516,21.9921875 L50.5058594,21.9921875 C50.5058594,22.6165365 50.6733398,23.1634115 51.0083008,23.6328125 C51.3432617,24.1022135 51.8126628,24.4702148 52.4165039,24.7368164 C53.0203451,25.003418 53.6822917,25.1367188 54.4023438,25.1367188 Z M60.4589844,16.5576172 C60.7597656,16.5576172 60.9921875,16.4744466 61.15625,16.3081055 C61.3203125,16.1417643 61.4023438,15.9332682 61.4023438,15.6826172 C61.4023438,15.4274089 61.3203125,15.2154948 61.15625,15.046875 C60.9921875,14.8782552 60.7597656,14.7939453 60.4589844,14.7939453 C60.1582031,14.7939453 59.9269206,14.8782552 59.7651367,15.046875 C59.6033529,15.2154948 59.5224609,15.4274089 59.5224609,15.6826172 C59.5224609,15.9332682 59.6033529,16.1417643 59.7651367,16.3081055 C59.9269206,16.4744466 60.1582031,16.5576172 60.4589844,16.5576172 Z M61.2861328,25 L61.2861328,17.6035156 L59.625,17.6035156 L59.625,25 L61.2861328,25 Z M66.1943359,27.9121094 C67.2197266,27.9121094 68.0343424,27.6318359 68.6381836,27.0712891 C69.2420247,26.5107422 69.5439453,25.7451172 69.5439453,24.7744141 L69.5439453,24.7744141 L69.5439453,17.6035156 L68.046875,17.6035156 L67.9716797,18.3486328 C67.4886068,17.7607422 66.8255208,17.4667969 65.9824219,17.4667969 C65.0891927,17.4667969 64.3725586,17.8097331 63.8325195,18.4956055 C63.2924805,19.1814779 63.0224609,20.0986328 63.0224609,21.2470703 C63.0224609,22.4638672 63.2970378,23.4163411 63.8461914,24.1044922 C64.3953451,24.7926432 65.1028646,25.1367188 65.96875,25.1367188 C66.766276,25.1367188 67.4042969,24.8701172 67.8828125,24.3369141 L67.8828125,24.3369141 L67.8828125,24.8359375 C67.8828125,25.4147135 67.7233073,25.8533529 67.4042969,26.1518555 C67.0852865,26.4503581 66.6500651,26.5996094 66.0986328,26.5996094 C65.351237,26.5996094 64.7223307,26.2965495 64.2119141,25.6904297 L64.2119141,25.6904297 L63.4257812,26.6884766 C63.6946615,27.0530599 64.0877279,27.3481445 64.6049805,27.5737305 C65.1222331,27.7993164 65.6520182,27.9121094 66.1943359,27.9121094 Z M66.3925781,23.7832031 C65.8548177,23.7832031 65.4344076,23.5701497 65.1313477,23.144043 C64.8282878,22.7179362 64.6767578,22.1334635 64.6767578,21.390625 C64.6767578,20.547526 64.8282878,19.9095052 65.1313477,19.4765625 C65.4344076,19.0436198 65.859375,18.8271484 66.40625,18.8271484 C67.0761719,18.8271484 67.5683594,19.1074219 67.8828125,19.6679688 L67.8828125,19.6679688 L67.8828125,22.921875 C67.5592448,23.4960938 67.0625,23.7832031 66.3925781,23.7832031 Z M73.1054688,25 L73.1054688,19.7363281 C73.4335938,19.1302083 73.9326172,18.8271484 74.6025391,18.8271484 C75.0628255,18.8271484 75.3943685,18.9399414 75.597168,19.1655273 C75.7999674,19.3911133 75.9013672,19.7386068 75.9013672,20.2080078 L75.9013672,20.2080078 L75.9013672,25 L77.5625,25 L77.5625,20.1123047 C77.5351562,18.3486328 76.7513021,17.4667969 75.2109375,17.4667969 C74.3222656,17.4667969 73.6044922,17.7972005 73.0576172,18.4580078 L73.0576172,18.4580078 L73.0097656,17.6035156 L71.4443359,17.6035156 L71.4443359,25 L73.1054688,25 Z M84.1181641,16.5576172 C84.4189453,16.5576172 84.6513672,16.4744466 84.8154297,16.3081055 C84.9794922,16.1417643 85.0615234,15.9332682 85.0615234,15.6826172 C85.0615234,15.4274089 84.9794922,15.2154948 84.8154297,15.046875 C84.6513672,14.8782552 84.4189453,14.7939453 84.1181641,14.7939453 C83.8173828,14.7939453 83.5861003,14.8782552 83.4243164,15.046875 C83.2625326,15.2154948 83.1816406,15.4274089 83.1816406,15.6826172 C83.1816406,15.9332682 83.2625326,16.1417643 83.4243164,16.3081055 C83.5861003,16.4744466 83.8173828,16.5576172 84.1181641,16.5576172 Z M84.9453125,25 L84.9453125,17.6035156 L83.2841797,17.6035156 L83.2841797,25 L84.9453125,25 Z M88.609375,25 L88.609375,19.7363281 C88.9375,19.1302083 89.4365234,18.8271484 90.1064453,18.8271484 C90.5667318,18.8271484 90.8982747,18.9399414 91.1010742,19.1655273 C91.3038737,19.3911133 91.4052734,19.7386068 91.4052734,20.2080078 L91.4052734,20.2080078 L91.4052734,25 L93.0664062,25 L93.0664062,20.1123047 C93.0390625,18.3486328 92.2552083,17.4667969 90.7148438,17.4667969 C89.8261719,17.4667969 89.1083984,17.7972005 88.5615234,18.4580078 L88.5615234,18.4580078 L88.5136719,17.6035156 L86.9482422,17.6035156 L86.9482422,25 L88.609375,25 Z M101.447266,25 L103.005859,19.9208984 L104.591797,25 L105.958984,25 L107.975586,17.6035156 L106.355469,17.6035156 L105.179688,22.7099609 L103.641602,17.6035156 L102.390625,17.6035156 L100.873047,22.6552734 L99.6767578,17.6035156 L98.0566406,17.6035156 L100.080078,25 L101.447266,25 Z M110.245117,16.5576172 C110.545898,16.5576172 110.77832,16.4744466 110.942383,16.3081055 C111.106445,16.1417643 111.188477,15.9332682 111.188477,15.6826172 C111.188477,15.4274089 111.106445,15.2154948 110.942383,15.046875 C110.77832,14.8782552 110.545898,14.7939453 110.245117,14.7939453 C109.944336,14.7939453 109.713053,14.8782552 109.55127,15.046875 C109.389486,15.2154948 109.308594,15.4274089 109.308594,15.6826172 C109.308594,15.9332682 109.389486,16.1417643 109.55127,16.3081055 C109.713053,16.4744466 109.944336,16.5576172 110.245117,16.5576172 Z M111.072266,25 L111.072266,17.6035156 L109.411133,17.6035156 L109.411133,25 L111.072266,25 Z M115.433594,25.1367188 C115.784505,25.1367188 116.149089,25.0843099 116.527344,24.9794922 L116.527344,24.9794922 L116.527344,23.6943359 C116.33138,23.7399089 116.137695,23.7626953 115.946289,23.7626953 C115.65918,23.7626953 115.459798,23.7000326 115.348145,23.574707 C115.236491,23.4493815 115.180664,23.2454427 115.180664,22.9628906 L115.180664,22.9628906 L115.180664,18.8339844 L116.486328,18.8339844 L116.486328,17.6035156 L115.180664,17.6035156 L115.180664,15.8056641 L113.519531,15.8056641 L113.519531,17.6035156 L112.302734,17.6035156 L112.302734,18.8339844 L113.519531,18.8339844 L113.519531,23.0244141 C113.519531,24.4326172 114.157552,25.1367188 115.433594,25.1367188 Z M119.610352,25 L119.610352,19.7158203 C119.938477,19.1233724 120.435221,18.8271484 121.100586,18.8271484 C121.528971,18.8271484 121.853678,18.9331055 122.074707,19.1450195 C122.295736,19.3569336 122.40625,19.718099 122.40625,20.2285156 L122.40625,20.2285156 L122.40625,25 L124.067383,25 L124.067383,20.1669922 C124.044596,18.366862 123.244792,17.4667969 121.667969,17.4667969 C120.838542,17.4667969 120.152669,17.78125 119.610352,18.4101562 L119.610352,18.4101562 L119.610352,14.5 L117.949219,14.5 L117.949219,25 L119.610352,25 Z M133.788086,25.1367188 C134.599284,25.1367188 135.323893,25.0159505 135.961914,24.7744141 C136.599935,24.5328776 137.098958,24.1774089 137.458984,23.7080078 L137.458984,23.7080078 L137.458984,19.8935547 L133.685547,19.8935547 L133.685547,21.2060547 L135.736328,21.2060547 L135.736328,23.1542969 C135.36263,23.5553385 134.733724,23.7558594 133.849609,23.7558594 C133.042969,23.7558594 132.412923,23.4584961 131.959473,22.8637695 C131.506022,22.269043 131.279297,21.4339193 131.279297,20.3583984 L131.279297,20.3583984 L131.279297,19.5927734 C131.292969,18.5126953 131.501465,17.6935221 131.904785,17.1352539 C132.308105,16.5769857 132.897135,16.2978516 133.671875,16.2978516 C134.870443,16.2978516 135.56543,16.8971354 135.756836,18.0957031 L135.756836,18.0957031 L137.452148,18.0957031 C137.319987,17.0657552 136.92806,16.2773438 136.276367,15.7304688 C135.624674,15.1835938 134.745117,14.9101562 133.637695,14.9101562 C132.347982,14.9101562 131.343099,15.3328451 130.623047,16.1782227 C129.902995,17.0236003 129.542969,18.1982422 129.542969,19.7021484 L129.542969,19.7021484 L129.542969,20.4814453 C129.556641,21.4202474 129.737793,22.2416992 130.086426,22.9458008 C130.435059,23.6499023 130.930664,24.1910807 131.573242,24.5693359 C132.21582,24.9475911 132.954102,25.1367188 133.788086,25.1367188 Z M142.551758,25.1367188 C143.235352,25.1367188 143.838053,24.9794922 144.359863,24.6650391 C144.881673,24.3505859 145.282715,23.90625 145.562988,23.3320312 C145.843262,22.7578125 145.983398,22.1061198 145.983398,21.3769531 L145.983398,21.3769531 L145.976562,20.9873047 C145.926432,19.9254557 145.590332,19.0732422 144.968262,18.4306641 C144.346191,17.7880859 143.536133,17.4667969 142.538086,17.4667969 C141.863607,17.4667969 141.266602,17.6228841 140.74707,17.9350586 C140.227539,18.2472331 139.824219,18.6938477 139.537109,19.2749023 C139.25,19.855957 139.106445,20.5087891 139.106445,21.2333984 L139.106445,21.2333984 L139.106445,21.3154297 C139.106445,22.4729818 139.419759,23.3992513 140.046387,24.0942383 C140.673014,24.7892253 141.508138,25.1367188 142.551758,25.1367188 Z M142.551758,23.8105469 C141.991211,23.8105469 141.553711,23.5952148 141.239258,23.1645508 C140.924805,22.7338867 140.767578,22.1380208 140.767578,21.3769531 C140.767578,20.5201823 140.927083,19.8764648 141.246094,19.4458008 C141.565104,19.0151367 141.995768,18.7998047 142.538086,18.7998047 C143.089518,18.7998047 143.525879,19.0185547 143.847168,19.4560547 C144.168457,19.8935547 144.329102,20.4860026 144.329102,21.2333984 C144.329102,22.0764974 144.173014,22.7167969 143.86084,23.1542969 C143.548665,23.5917969 143.112305,23.8105469 142.551758,23.8105469 Z M150.741211,25.1367188 C151.424805,25.1367188 152.027507,24.9794922 152.549316,24.6650391 C153.071126,24.3505859 153.472168,23.90625 153.752441,23.3320312 C154.032715,22.7578125 154.172852,22.1061198 154.172852,21.3769531 L154.172852,21.3769531 L154.166016,20.9873047 C154.115885,19.9254557 153.779785,19.0732422 153.157715,18.4306641 C152.535645,17.7880859 151.725586,17.4667969 150.727539,17.4667969 C150.05306,17.4667969 149.456055,17.6228841 148.936523,17.9350586 C148.416992,18.2472331 148.013672,18.6938477 147.726562,19.2749023 C147.439453,19.855957 147.295898,20.5087891 147.295898,21.2333984 L147.295898,21.2333984 L147.295898,21.3154297 C147.295898,22.4729818 147.609212,23.3992513 148.23584,24.0942383 C148.862467,24.7892253 149.697591,25.1367188 150.741211,25.1367188 Z M150.741211,23.8105469 C150.180664,23.8105469 149.743164,23.5952148 149.428711,23.1645508 C149.114258,22.7338867 148.957031,22.1380208 148.957031,21.3769531 C148.957031,20.5201823 149.116536,19.8764648 149.435547,19.4458008 C149.754557,19.0151367 150.185221,18.7998047 150.727539,18.7998047 C151.278971,18.7998047 151.715332,19.0185547 152.036621,19.4560547 C152.35791,19.8935547 152.518555,20.4860026 152.518555,21.2333984 C152.518555,22.0764974 152.362467,22.7167969 152.050293,23.1542969 C151.738118,23.5917969 151.301758,23.8105469 150.741211,23.8105469 Z M158.677734,27.9121094 C159.703125,27.9121094 160.517741,27.6318359 161.121582,27.0712891 C161.725423,26.5107422 162.027344,25.7451172 162.027344,24.7744141 L162.027344,24.7744141 L162.027344,17.6035156 L160.530273,17.6035156 L160.455078,18.3486328 C159.972005,17.7607422 159.308919,17.4667969 158.46582,17.4667969 C157.572591,17.4667969 156.855957,17.8097331 156.315918,18.4956055 C155.775879,19.1814779 155.505859,20.0986328 155.505859,21.2470703 C155.505859,22.4638672 155.780436,23.4163411 156.32959,24.1044922 C156.878743,24.7926432 157.586263,25.1367188 158.452148,25.1367188 C159.249674,25.1367188 159.887695,24.8701172 160.366211,24.3369141 L160.366211,24.3369141 L160.366211,24.8359375 C160.366211,25.4147135 160.206706,25.8533529 159.887695,26.1518555 C159.568685,26.4503581 159.133464,26.5996094 158.582031,26.5996094 C157.834635,26.5996094 157.205729,26.2965495 156.695312,25.6904297 L156.695312,25.6904297 L155.90918,26.6884766 C156.17806,27.0530599 156.571126,27.3481445 157.088379,27.5737305 C157.605632,27.7993164 158.135417,27.9121094 158.677734,27.9121094 Z M158.875977,23.7832031 C158.338216,23.7832031 157.917806,23.5701497 157.614746,23.144043 C157.311686,22.7179362 157.160156,22.1334635 157.160156,21.390625 C157.160156,20.547526 157.311686,19.9095052 157.614746,19.4765625 C157.917806,19.0436198 158.342773,18.8271484 158.889648,18.8271484 C159.55957,18.8271484 160.051758,19.1074219 160.366211,19.6679688 L160.366211,19.6679688 L160.366211,22.921875 C160.042643,23.4960938 159.545898,23.7832031 158.875977,23.7832031 Z M165.71875,25 L165.71875,14.5 L164.057617,14.5 L164.057617,25 L165.71875,25 Z M171.00293,25.1367188 C171.618164,25.1367188 172.173014,25.0148112 172.66748,24.7709961 C173.161947,24.527181 173.557292,24.1842448 173.853516,23.7421875 L173.853516,23.7421875 L172.958008,22.8876953 C172.479492,23.5029297 171.859701,23.8105469 171.098633,23.8105469 C170.556315,23.8105469 170.106283,23.6328125 169.748535,23.2773438 C169.390788,22.921875 169.186849,22.4388021 169.136719,21.828125 L169.136719,21.828125 L173.969727,21.828125 L173.969727,21.1582031 C173.969727,19.9824219 173.69515,19.0732422 173.145996,18.4306641 C172.596842,17.7880859 171.818685,17.4667969 170.811523,17.4667969 C170.17806,17.4667969 169.603841,17.6285807 169.088867,17.9521484 C168.573893,18.2757161 168.173991,18.7280273 167.88916,19.309082 C167.604329,19.8901367 167.461914,20.5498047 167.461914,21.2880859 L167.461914,21.2880859 L167.461914,21.4931641 C167.461914,22.5960286 167.7889,23.4790039 168.442871,24.1420898 C169.096842,24.8051758 169.950195,25.1367188 171.00293,25.1367188 Z M172.329102,20.6113281 L169.164062,20.6113281 C169.241536,20.0416667 169.42041,19.5973307 169.700684,19.2783203 C169.980957,18.9593099 170.348958,18.7998047 170.804688,18.7998047 C171.264974,18.7998047 171.625,18.9422201 171.884766,19.2270508 C172.144531,19.5118815 172.292643,19.9322917 172.329102,20.4882812 L172.329102,20.4882812 L172.329102,20.6113281 Z" id="SigninwithGoogle" fill="#FFFFFF" fill-rule="nonzero"></path>
            <rect id="button-bg-copy" fill="#FFFFFF" x="1" y="1" width="38" height="38" rx="1"></rect>
            <g id="logo_googleg_48dp" transform="translate(11.000000, 11.000000)">
                <path d="M17.64,9.20454545 C17.64,8.56636364 17.5827273,7.95272727 17.4763636,7.36363636 L9,7.36363636 L9,10.845 L13.8436364,10.845 C13.635,11.97 13.0009091,12.9231818 12.0477273,13.5613636 L12.0477273,15.8195455 L14.9563636,15.8195455 C16.6581818,14.2527273 17.64,11.9454545 17.64,9.20454545 L17.64,9.20454545 Z" id="Shape" fill="#4285F4"></path>
                <path d="M9,18 C11.43,18 13.4672727,17.1940909 14.9563636,15.8195455 L12.0477273,13.5613636 C11.2418182,14.1013636 10.2109091,14.4204545 9,14.4204545 C6.65590909,14.4204545 4.67181818,12.8372727 3.96409091,10.71 L0.957272727,10.71 L0.957272727,13.0418182 C2.43818182,15.9831818 5.48181818,18 9,18 L9,18 Z" id="Shape" fill="#34A853"></path>
                <path d="M3.96409091,10.71 C3.78409091,10.17 3.68181818,9.59318182 3.68181818,9 C3.68181818,8.40681818 3.78409091,7.83 3.96409091,7.29 L3.96409091,4.95818182 L0.957272727,4.95818182 C0.347727273,6.17318182 0,7.54772727 0,9 C0,10.4522727 0.347727273,11.8268182 0.957272727,13.0418182 L3.96409091,10.71 L3.96409091,10.71 Z" id="Shape" fill="#FBBC05"></path>
                <path d="M9,3.57954545 C10.3213636,3.57954545 11.5077273,4.03363636 12.4404545,4.92545455 L15.0218182,2.34409091 C13.4631818,0.891818182 11.4259091,0 9,0 C5.48181818,0 2.43818182,2.01681818 0.957272727,4.95818182 L3.96409091,7.29 C4.67181818,5.16272727 6.65590909,3.57954545 9,3.57954545 L9,3.57954545 Z" id="Shape" fill="#EA4335"></path>
                <polygon id="Shape" points="0 0 18 0 18 18 0 18"></polygon>
            </g>
        </g>
        <g id="Group" transform="translate(4.000000, 52.000000)">
            <g id="button-bg">
                <use fill="black" fill-opacity="1" filter="url(#filter-4)" xlink:href="#path-3"></use>
                <use fill="#5491F6" fill-rule="evenodd" xlink:href="#path-3"></use>
            </g>
            <path d="M54.4023438,25.1367188 C55.4915365,25.1367188 56.3540039,24.8917643 56.9897461,24.4018555 C57.6254883,23.9119466 57.9433594,23.2522786 57.9433594,22.4228516 C57.9433594,21.9124349 57.8339844,21.4669596 57.6152344,21.0864258 C57.3964844,20.7058919 57.0524089,20.3686523 56.5830078,20.074707 C56.1136068,19.7807617 55.4915365,19.5187174 54.7167969,19.2885742 C53.9420573,19.058431 53.3860677,18.8214518 53.0488281,18.5776367 C52.7115885,18.3338216 52.5429688,18.0296224 52.5429688,17.6650391 C52.5429688,17.2320964 52.699056,16.8948568 53.0112305,16.6533203 C53.3234049,16.4117839 53.7620443,16.2910156 54.3271484,16.2910156 C54.9332682,16.2910156 55.3992513,16.4379883 55.7250977,16.7319336 C56.050944,17.0258789 56.2138672,17.4326172 56.2138672,17.9521484 L56.2138672,17.9521484 L57.9365234,17.9521484 C57.9365234,17.3779297 57.7815755,16.8549805 57.4716797,16.3833008 C57.1617839,15.9116211 56.7356771,15.5481771 56.1933594,15.2929688 C55.6510417,15.0377604 55.0335286,14.9101562 54.3408203,14.9101562 C53.2972005,14.9101562 52.4484049,15.1699219 51.7944336,15.6894531 C51.1404622,16.2089844 50.8134766,16.8697917 50.8134766,17.671875 C50.8134766,18.5878906 51.2669271,19.3307292 52.1738281,19.9003906 C52.6477865,20.1966146 53.2858073,20.4654948 54.0878906,20.7070312 C54.889974,20.9485677 55.4448242,21.1878255 55.7524414,21.4248047 C56.0600586,21.6617839 56.2138672,21.9990234 56.2138672,22.4365234 C56.2138672,22.8375651 56.0623372,23.1599935 55.7592773,23.4038086 C55.4562174,23.6476237 55.0039062,23.7695312 54.4023438,23.7695312 C53.7050781,23.7695312 53.1695964,23.6145833 52.7958984,23.3046875 C52.4222005,22.9947917 52.2353516,22.5572917 52.2353516,21.9921875 L52.2353516,21.9921875 L50.5058594,21.9921875 C50.5058594,22.6165365 50.6733398,23.1634115 51.0083008,23.6328125 C51.3432617,24.1022135 51.8126628,24.4702148 52.4165039,24.7368164 C53.0203451,25.003418 53.6822917,25.1367188 54.4023438,25.1367188 Z M60.4589844,16.5576172 C60.7597656,16.5576172 60.9921875,16.4744466 61.15625,16.3081055 C61.3203125,16.1417643 61.4023438,15.9332682 61.4023438,15.6826172 C61.4023438,15.4274089 61.3203125,15.2154948 61.15625,15.046875 C60.9921875,14.8782552 60.7597656,14.7939453 60.4589844,14.7939453 C60.1582031,14.7939453 59.9269206,14.8782552 59.7651367,15.046875 C59.6033529,15.2154948 59.5224609,15.4274089 59.5224609,15.6826172 C59.5224609,15.9332682 59.6033529,16.1417643 59.7651367,16.3081055 C59.9269206,16.4744466 60.1582031,16.5576172 60.4589844,16.5576172 Z M61.2861328,25 L61.2861328,17.6035156 L59.625,17.6035156 L59.625,25 L61.2861328,25 Z M66.1943359,27.9121094 C67.2197266,27.9121094 68.0343424,27.6318359 68.6381836,27.0712891 C69.2420247,26.5107422 69.5439453,25.7451172 69.5439453,24.7744141 L69.5439453,24.7744141 L69.5439453,17.6035156 L68.046875,17.6035156 L67.9716797,18.3486328 C67.4886068,17.7607422 66.8255208,17.4667969 65.9824219,17.4667969 C65.0891927,17.4667969 64.3725586,17.8097331 63.8325195,18.4956055 C63.2924805,19.1814779 63.0224609,20.0986328 63.0224609,21.2470703 C63.0224609,22.4638672 63.2970378,23.4163411 63.8461914,24.1044922 C64.3953451,24.7926432 65.1028646,25.1367188 65.96875,25.1367188 C66.766276,25.1367188 67.4042969,24.8701172 67.8828125,24.3369141 L67.8828125,24.3369141 L67.8828125,24.8359375 C67.8828125,25.4147135 67.7233073,25.8533529 67.4042969,26.1518555 C67.0852865,26.4503581 66.6500651,26.5996094 66.0986328,26.5996094 C65.351237,26.5996094 64.7223307,26.2965495 64.2119141,25.6904297 L64.2119141,25.6904297 L63.4257812,26.6884766 C63.6946615,27.0530599 64.0877279,27.3481445 64.6049805,27.5737305 C65.1222331,27.7993164 65.6520182,27.9121094 66.1943359,27.9121094 Z M66.3925781,23.7832031 C65.8548177,23.7832031 65.4344076,23.5701497 65.1313477,23.144043 C64.8282878,22.7179362 64.6767578,22.1334635 64.6767578,21.390625 C64.6767578,20.547526 64.8282878,19.9095052 65.1313477,19.4765625 C65.4344076,19.0436198 65.859375,18.8271484 66.40625,18.8271484 C67.0761719,18.8271484 67.5683594,19.1074219 67.8828125,19.6679688 L67.8828125,19.6679688 L67.8828125,22.921875 C67.5592448,23.4960938 67.0625,23.7832031 66.3925781,23.7832031 Z M73.1054688,25 L73.1054688,19.7363281 C73.4335938,19.1302083 73.9326172,18.8271484 74.6025391,18.8271484 C75.0628255,18.8271484 75.3943685,18.9399414 75.597168,19.1655273 C75.7999674,19.3911133 75.9013672,19.7386068 75.9013672,20.2080078 L75.9013672,20.2080078 L75.9013672,25 L77.5625,25 L77.5625,20.1123047 C77.5351562,18.3486328 76.7513021,17.4667969 75.2109375,17.4667969 C74.3222656,17.4667969 73.6044922,17.7972005 73.0576172,18.4580078 L73.0576172,18.4580078 L73.0097656,17.6035156 L71.4443359,17.6035156 L71.4443359,25 L73.1054688,25 Z M84.1181641,16.5576172 C84.4189453,16.5576172 84.6513672,16.4744466 84.8154297,16.3081055 C84.9794922,16.1417643 85.0615234,15.9332682 85.0615234,15.6826172 C85.0615234,15.4274089 84.9794922,15.2154948 84.8154297,15.046875 C84.6513672,14.8782552 84.4189453,14.7939453 84.1181641,14.7939453 C83.8173828,14.7939453 83.5861003,14.8782552 83.4243164,15.046875 C83.2625326,15.2154948 83.1816406,15.4274089 83.1816406,15.6826172 C83.1816406,15.9332682 83.2625326,16.1417643 83.4243164,16.3081055 C83.5861003,16.4744466 83.8173828,16.5576172 84.1181641,16.5576172 Z M84.9453125,25 L84.9453125,17.6035156 L83.2841797,17.6035156 L83.2841797,25 L84.9453125,25 Z M88.609375,25 L88.609375,19.7363281 C88.9375,19.1302083 89.4365234,18.8271484 90.1064453,18.8271484 C90.5667318,18.8271484 90.8982747,18.9399414 91.1010742,19.1655273 C91.3038737,19.3911133 91.4052734,19.7386068 91.4052734,20.2080078 L91.4052734,20.2080078 L91.4052734,25 L93.0664062,25 L93.0664062,20.1123047 C93.0390625,18.3486328 92.2552083,17.4667969 90.7148438,17.4667969 C89.8261719,17.4667969 89.1083984,17.7972005 88.5615234,18.4580078 L88.5615234,18.4580078 L88.5136719,17.6035156 L86.9482422,17.6035156 L86.9482422,25 L88.609375,25 Z M101.447266,25 L103.005859,19.9208984 L104.591797,25 L105.958984,25 L107.975586,17.6035156 L106.355469,17.6035156 L105.179688,22.7099609 L103.641602,17.6035156 L102.390625,17.6035156 L100.873047,22.6552734 L99.6767578,17.6035156 L98.0566406,17.6035156 L100.080078,25 L101.447266,25 Z M110.245117,16.5576172 C110.545898,16.5576172 110.77832,16.4744466 110.942383,16.3081055 C111.106445,16.1417643 111.188477,15.9332682 111.188477,15.6826172 C111.188477,15.4274089 111.106445,15.2154948 110.942383,15.046875 C110.77832,14.8782552 110.545898,14.7939453 110.245117,14.7939453 C109.944336,14.7939453 109.713053,14.8782552 109.55127,15.046875 C109.389486,15.2154948 109.308594,15.4274089 109.308594,15.6826172 C109.308594,15.9332682 109.389486,16.1417643 109.55127,16.3081055 C109.713053,16.4744466 109.944336,16.5576172 110.245117,16.5576172 Z M111.072266,25 L111.072266,17.6035156 L109.411133,17.6035156 L109.411133,25 L111.072266,25 Z M115.433594,25.1367188 C115.784505,25.1367188 116.149089,25.0843099 116.527344,24.9794922 L116.527344,24.9794922 L116.527344,23.6943359 C116.33138,23.7399089 116.137695,23.7626953 115.946289,23.7626953 C115.65918,23.7626953 115.459798,23.7000326 115.348145,23.574707 C115.236491,23.4493815 115.180664,23.2454427 115.180664,22.9628906 L115.180664,22.9628906 L115.180664,18.8339844 L116.486328,18.8339844 L116.486328,17.6035156 L115.180664,17.6035156 L115.180664,15.8056641 L113.519531,15.8056641 L113.519531,17.6035156 L112.302734,17.6035156 L112.302734,18.8339844 L113.519531,18.8339844 L113.519531,23.0244141 C113.519531,24.4326172 114.157552,25.1367188 115.433594,25.1367188 Z M119.610352,25 L119.610352,19.7158203 C119.938477,19.1233724 120.435221,18.8271484 121.100586,18.8271484 C121.528971,18.8271484 121.853678,18.9331055 122.074707,19.1450195 C122.295736,19.3569336 122.40625,19.718099 122.40625,20.2285156 L122.40625,20.2285156 L122.40625,25 L124.067383,25 L124.067383,20.1669922 C124.044596,18.366862 123.244792,17.4667969 121.667969,17.4667969 C120.838542,17.4667969 120.152669,17.78125 119.610352,18.4101562 L119.610352,18.4101562 L119.610352,14.5 L117.949219,14.5 L117.949219,25 L119.610352,25 Z M133.788086,25.1367188 C134.599284,25.1367188 135.323893,25.0159505 135.961914,24.7744141 C136.599935,24.5328776 137.098958,24.1774089 137.458984,23.7080078 L137.458984,23.7080078 L137.458984,19.8935547 L133.685547,19.8935547 L133.685547,21.2060547 L135.736328,21.2060547 L135.736328,23.1542969 C135.36263,23.5553385 134.733724,23.7558594 133.849609,23.7558594 C133.042969,23.7558594 132.412923,23.4584961 131.959473,22.8637695 C131.506022,22.269043 131.279297,21.4339193 131.279297,20.3583984 L131.279297,20.3583984 L131.279297,19.5927734 C131.292969,18.5126953 131.501465,17.6935221 131.904785,17.1352539 C132.308105,16.5769857 132.897135,16.2978516 133.671875,16.2978516 C134.870443,16.2978516 135.56543,16.8971354 135.756836,18.0957031 L135.756836,18.0957031 L137.452148,18.0957031 C137.319987,17.0657552 136.92806,16.2773438 136.276367,15.7304688 C135.624674,15.1835938 134.745117,14.9101562 133.637695,14.9101562 C132.347982,14.9101562 131.343099,15.3328451 130.623047,16.1782227 C129.902995,17.0236003 129.542969,18.1982422 129.542969,19.7021484 L129.542969,19.7021484 L129.542969,20.4814453 C129.556641,21.4202474 129.737793,22.2416992 130.086426,22.9458008 C130.435059,23.6499023 130.930664,24.1910807 131.573242,24.5693359 C132.21582,24.9475911 132.954102,25.1367188 133.788086,25.1367188 Z M142.551758,25.1367188 C143.235352,25.1367188 143.838053,24.9794922 144.359863,24.6650391 C144.881673,24.3505859 145.282715,23.90625 145.562988,23.3320312 C145.843262,22.7578125 145.983398,22.1061198 145.983398,21.3769531 L145.983398,21.3769531 L145.976562,20.9873047 C145.926432,19.9254557 145.590332,19.0732422 144.968262,18.4306641 C144.346191,17.7880859 143.536133,17.4667969 142.538086,17.4667969 C141.863607,17.4667969 141.266602,17.6228841 140.74707,17.9350586 C140.227539,18.2472331 139.824219,18.6938477 139.537109,19.2749023 C139.25,19.855957 139.106445,20.5087891 139.106445,21.2333984 L139.106445,21.2333984 L139.106445,21.3154297 C139.106445,22.4729818 139.419759,23.3992513 140.046387,24.0942383 C140.673014,24.7892253 141.508138,25.1367188 142.551758,25.1367188 Z M142.551758,23.8105469 C141.991211,23.8105469 141.553711,23.5952148 141.239258,23.1645508 C140.924805,22.7338867 140.767578,22.1380208 140.767578,21.3769531 C140.767578,20.5201823 140.927083,19.8764648 141.246094,19.4458008 C141.565104,19.0151367 141.995768,18.7998047 142.538086,18.7998047 C143.089518,18.7998047 143.525879,19.0185547 143.847168,19.4560547 C144.168457,19.8935547 144.329102,20.4860026 144.329102,21.2333984 C144.329102,22.0764974 144.173014,22.7167969 143.86084,23.1542969 C143.548665,23.5917969 143.112305,23.8105469 142.551758,23.8105469 Z M150.741211,25.1367188 C151.424805,25.1367188 152.027507,24.9794922 152.549316,24.6650391 C153.071126,24.3505859 153.472168,23.90625 153.752441,23.3320312 C154.032715,22.7578125 154.172852,22.1061198 154.172852,21.3769531 L154.172852,21.3769531 L154.166016,20.9873047 C154.115885,19.9254557 153.779785,19.0732422 153.157715,18.4306641 C152.535645,17.7880859 151.725586,17.4667969 150.727539,17.4667969 C150.05306,17.4667969 149.456055,17.6228841 148.936523,17.9350586 C148.416992,18.2472331 148.013672,18.6938477 147.726562,19.2749023 C147.439453,19.855957 147.295898,20.5087891 147.295898,21.2333984 L147.295898,21.2333984 L147.295898,21.3154297 C147.295898,22.4729818 147.609212,23.3992513 148.23584,24.0942383 C148.862467,24.7892253 149.697591,25.1367188 150.741211,25.1367188 Z M150.741211,23.8105469 C150.180664,23.8105469 149.743164,23.5952148 149.428711,23.1645508 C149.114258,22.7338867 148.957031,22.1380208 148.957031,21.3769531 C148.957031,20.5201823 149.116536,19.8764648 149.435547,19.4458008 C149.754557,19.0151367 150.185221,18.7998047 150.727539,18.7998047 C151.278971,18.7998047 151.715332,19.0185547 152.036621,19.4560547 C152.35791,19.8935547 152.518555,20.4860026 152.518555,21.2333984 C152.518555,22.0764974 152.362467,22.7167969 152.050293,23.1542969 C151.738118,23.5917969 151.301758,23.8105469 150.741211,23.8105469 Z M158.677734,27.9121094 C159.703125,27.9121094 160.517741,27.6318359 161.121582,27.0712891 C161.725423,26.5107422 162.027344,25.7451172 162.027344,24.7744141 L162.027344,24.7744141 L162.027344,17.6035156 L160.530273,17.6035156 L160.455078,18.3486328 C159.972005,17.7607422 159.308919,17.4667969 158.46582,17.4667969 C157.572591,17.4667969 156.855957,17.8097331 156.315918,18.4956055 C155.775879,19.1814779 155.505859,20.0986328 155.505859,21.2470703 C155.505859,22.4638672 155.780436,23.4163411 156.32959,24.1044922 C156.878743,24.7926432 157.586263,25.1367188 158.452148,25.1367188 C159.249674,25.1367188 159.887695,24.8701172 160.366211,24.3369141 L160.366211,24.3369141 L160.366211,24.8359375 C160.366211,25.4147135 160.206706,25.8533529 159.887695,26.1518555 C159.568685,26.4503581 159.133464,26.5996094 158.582031,26.5996094 C157.834635,26.5996094 157.205729,26.2965495 156.695312,25.6904297 L156.695312,25.6904297 L155.90918,26.6884766 C156.17806,27.0530599 156.571126,27.3481445 157.088379,27.5737305 C157.605632,27.7993164 158.135417,27.9121094 158.677734,27.9121094 Z M158.875977,23.7832031 C158.338216,23.7832031 157.917806,23.5701497 157.614746,23.144043 C157.311686,22.7179362 157.160156,22.1334635 157.160156,21.390625 C157.160156,20.547526 157.311686,19.9095052 157.614746,19.4765625 C157.917806,19.0436198 158.342773,18.8271484 158.889648,18.8271484 C159.55957,18.8271484 160.051758,19.1074219 160.366211,19.6679688 L160.366211,19.6679688 L160.366211,22.921875 C160.042643,23.4960938 159.545898,23.7832031 158.875977,23.7832031 Z M165.71875,25 L165.71875,14.5 L164.057617,14.5 L164.057617,25 L165.71875,25 Z M171.00293,25.1367188 C171.618164,25.1367188 172.173014,25.0148112 172.66748,24.7709961 C173.161947,24.527181 173.557292,24.1842448 173.853516,23.7421875 L173.853516,23.7421875 L172.958008,22.8876953 C172.479492,23.5029297 171.859701,23.8105469 171.098633,23.8105469 C170.556315,23.8105469 170.106283,23.6328125 169.748535,23.2773438 C169.390788,22.921875 169.186849,22.4388021 169.136719,21.828125 L169.136719,21.828125 L173.969727,21.828125 L173.969727,21.1582031 C173.969727,19.9824219 173.69515,19.0732422 173.145996,18.4306641 C172.596842,17.7880859 171.818685,17.4667969 170.811523,17.4667969 C170.17806,17.4667969 169.603841,17.6285807 169.088867,17.9521484 C168.573893,18.2757161 168.173991,18.7280273 167.88916,19.309082 C167.604329,19.8901367 167.461914,20.5498047 167.461914,21.2880859 L167.461914,21.2880859 L167.461914,21.4931641 C167.461914,22.5960286 167.7889,23.4790039 168.442871,24.1420898 C169.096842,24.8051758 169.950195,25.1367188 171.00293,25.1367188 Z M172.329102,20.6113281 L169.164062,20.6113281 C169.241536,20.0416667 169.42041,19.5973307 169.700684,19.2783203 C169.980957,18.9593099 170.348958,18.7998047 170.804688,18.7998047 C171.264974,18.7998047 171.625,18.9422201 171.884766,19.2270508 C172.144531,19.5118815 172.292643,19.9322917 172.329102,20.4882812 L172.329102,20.4882812 L172.329102,20.6113281 Z" id="SigninwithGoogle" fill="#FFFFFF" fill-rule="nonzero"></path>
            <rect id="button-bg-copy" fill="#FFFFFF" x="1" y="1" width="38" height="38" rx="1"></rect>
            <g id="logo_googleg_48dp" transform="translate(11.000000, 11.000000)">
                <path d="M17.64,9.20454545 C17.64,8.56636364 17.5827273,7.95272727 17.4763636,7.36363636 L9,7.36363636 L9,10.845 L13.8436364,10.845 C13.635,11.97 13.0009091,12.9231818 12.0477273,13.5613636 L12.0477273,15.8195455 L14.9563636,15.8195455 C16.6581818,14.2527273 17.64,11.9454545 17.64,9.20454545 L17.64,9.20454545 Z" id="Shape" fill="#4285F4"></path>
                <path d="M9,18 C11.43,18 13.4672727,17.1940909 14.9563636,15.8195455 L12.0477273,13.5613636 C11.2418182,14.1013636 10.2109091,14.4204545 9,14.4204545 C6.65590909,14.4204545 4.67181818,12.8372727 3.96409091,10.71 L0.957272727,10.71 L0.957272727,13.0418182 C2.43818182,15.9831818 5.48181818,18 9,18 L9,18 Z" id="Shape" fill="#34A853"></path>
                <path d="M3.96409091,10.71 C3.78409091,10.17 3.68181818,9.59318182 3.68181818,9 C3.68181818,8.40681818 3.78409091,7.83 3.96409091,7.29 L3.96409091,4.95818182 L0.957272727,4.95818182 C0.347727273,6.17318182 0,7.54772727 0,9 C0,10.4522727 0.347727273,11.8268182 0.957272727,13.0418182 L3.96409091,10.71 L3.96409091,10.71 Z" id="Shape" fill="#FBBC05"></path>
                <path d="M9,3.57954545 C10.3213636,3.57954545 11.5077273,4.03363636 12.4404545,4.92545455 L15.0218182,2.34409091 C13.4631818,0.891818182 11.4259091,0 9,0 C5.48181818,0 2.43818182,2.01681818 0.957272727,4.95818182 L3.96409091,7.29 C4.67181818,5.16272727 6.65590909,3.57954545 9,3.57954545 L9,3.57954545 Z" id="Shape" fill="#EA4335"></path>
                <polygon id="Shape" points="0 0 18 0 18 18 0 18"></polygon>
            </g>
        </g>
        <g id="Group" transform="translate(4.000000, 100.000000)">
            <g id="button-bg">
                <use fill="black" fill-opacity="1" filter="url(#filter-6)" xlink:href="#path-5"></use>
                <use fill="#3367D6" fill-rule="evenodd" xlink:href="#path-5"></use>
            </g>
            <path d="M54.4023438,25.1367188 C55.4915365,25.1367188 56.3540039,24.8917643 56.9897461,24.4018555 C57.6254883,23.9119466 57.9433594,23.2522786 57.9433594,22.4228516 C57.9433594,21.9124349 57.8339844,21.4669596 57.6152344,21.0864258 C57.3964844,20.7058919 57.0524089,20.3686523 56.5830078,20.074707 C56.1136068,19.7807617 55.4915365,19.5187174 54.7167969,19.2885742 C53.9420573,19.058431 53.3860677,18.8214518 53.0488281,18.5776367 C52.7115885,18.3338216 52.5429688,18.0296224 52.5429688,17.6650391 C52.5429688,17.2320964 52.699056,16.8948568 53.0112305,16.6533203 C53.3234049,16.4117839 53.7620443,16.2910156 54.3271484,16.2910156 C54.9332682,16.2910156 55.3992513,16.4379883 55.7250977,16.7319336 C56.050944,17.0258789 56.2138672,17.4326172 56.2138672,17.9521484 L56.2138672,17.9521484 L57.9365234,17.9521484 C57.9365234,17.3779297 57.7815755,16.8549805 57.4716797,16.3833008 C57.1617839,15.9116211 56.7356771,15.5481771 56.1933594,15.2929688 C55.6510417,15.0377604 55.0335286,14.9101562 54.3408203,14.9101562 C53.2972005,14.9101562 52.4484049,15.1699219 51.7944336,15.6894531 C51.1404622,16.2089844 50.8134766,16.8697917 50.8134766,17.671875 C50.8134766,18.5878906 51.2669271,19.3307292 52.1738281,19.9003906 C52.6477865,20.1966146 53.2858073,20.4654948 54.0878906,20.7070312 C54.889974,20.9485677 55.4448242,21.1878255 55.7524414,21.4248047 C56.0600586,21.6617839 56.2138672,21.9990234 56.2138672,22.4365234 C56.2138672,22.8375651 56.0623372,23.1599935 55.7592773,23.4038086 C55.4562174,23.6476237 55.0039062,23.7695312 54.4023438,23.7695312 C53.7050781,23.7695312 53.1695964,23.6145833 52.7958984,23.3046875 C52.4222005,22.9947917 52.2353516,22.5572917 52.2353516,21.9921875 L52.2353516,21.9921875 L50.5058594,21.9921875 C50.5058594,22.6165365 50.6733398,23.1634115 51.0083008,23.6328125 C51.3432617,24.1022135 51.8126628,24.4702148 52.4165039,24.7368164 C53.0203451,25.003418 53.6822917,25.1367188 54.4023438,25.1367188 Z M60.4589844,16.5576172 C60.7597656,16.5576172 60.9921875,16.4744466 61.15625,16.3081055 C61.3203125,16.1417643 61.4023438,15.9332682 61.4023438,15.6826172 C61.4023438,15.4274089 61.3203125,15.2154948 61.15625,15.046875 C60.9921875,14.8782552 60.7597656,14.7939453 60.4589844,14.7939453 C60.1582031,14.7939453 59.9269206,14.8782552 59.7651367,15.046875 C59.6033529,15.2154948 59.5224609,15.4274089 59.5224609,15.6826172 C59.5224609,15.9332682 59.6033529,16.1417643 59.7651367,16.3081055 C59.9269206,16.4744466 60.1582031,16.5576172 60.4589844,16.5576172 Z M61.2861328,25 L61.2861328,17.6035156 L59.625,17.6035156 L59.625,25 L61.2861328,25 Z M66.1943359,27.9121094 C67.2197266,27.9121094 68.0343424,27.6318359 68.6381836,27.0712891 C69.2420247,26.5107422 69.5439453,25.7451172 69.5439453,24.7744141 L69.5439453,24.7744141 L69.5439453,17.6035156 L68.046875,17.6035156 L67.9716797,18.3486328 C67.4886068,17.7607422 66.8255208,17.4667969 65.9824219,17.4667969 C65.0891927,17.4667969 64.3725586,17.8097331 63.8325195,18.4956055 C63.2924805,19.1814779 63.0224609,20.0986328 63.0224609,21.2470703 C63.0224609,22.4638672 63.2970378,23.4163411 63.8461914,24.1044922 C64.3953451,24.7926432 65.1028646,25.1367188 65.96875,25.1367188 C66.766276,25.1367188 67.4042969,24.8701172 67.8828125,24.3369141 L67.8828125,24.3369141 L67.8828125,24.8359375 C67.8828125,25.4147135 67.7233073,25.8533529 67.4042969,26.1518555 C67.0852865,26.4503581 66.6500651,26.5996094 66.0986328,26.5996094 C65.351237,26.5996094 64.7223307,26.2965495 64.2119141,25.6904297 L64.2119141,25.6904297 L63.4257812,26.6884766 C63.6946615,27.0530599 64.0877279,27.3481445 64.6049805,27.5737305 C65.1222331,27.7993164 65.6520182,27.9121094 66.1943359,27.9121094 Z M66.3925781,23.7832031 C65.8548177,23.7832031 65.4344076,23.5701497 65.1313477,23.144043 C64.8282878,22.7179362 64.6767578,22.1334635 64.6767578,21.390625 C64.6767578,20.547526 64.8282878,19.9095052 65.1313477,19.4765625 C65.4344076,19.0436198 65.859375,18.8271484 66.40625,18.8271484 C67.0761719,18.8271484 67.5683594,19.1074219 67.8828125,19.6679688 L67.8828125,19.6679688 L67.8828125,22.921875 C67.5592448,23.4960938 67.0625,23.7832031 66.3925781,23.7832031 Z M73.1054688,25 L73.1054688,19.7363281 C73.4335938,19.1302083 73.9326172,18.8271484 74.6025391,18.8271484 C75.0628255,18.8271484 75.3943685,18.9399414 75.597168,19.1655273 C75.7999674,19.3911133 75.9013672,19.7386068 75.9013672,20.2080078 L75.9013672,20.2080078 L75.9013672,25 L77.5625,25 L77.5625,20.1123047 C77.5351562,18.3486328 76.7513021,17.4667969 75.2109375,17.4667969 C74.3222656,17.4667969 73.6044922,17.7972005 73.0576172,18.4580078 L73.0576172,18.4580078 L73.0097656,17.6035156 L71.4443359,17.6035156 L71.4443359,25 L73.1054688,25 Z M84.1181641,16.5576172 C84.4189453,16.5576172 84.6513672,16.4744466 84.8154297,16.3081055 C84.9794922,16.1417643 85.0615234,15.9332682 85.0615234,15.6826172 C85.0615234,15.4274089 84.9794922,15.2154948 84.8154297,15.046875 C84.6513672,14.8782552 84.4189453,14.7939453 84.1181641,14.7939453 C83.8173828,14.7939453 83.5861003,14.8782552 83.4243164,15.046875 C83.2625326,15.2154948 83.1816406,15.4274089 83.1816406,15.6826172 C83.1816406,15.9332682 83.2625326,16.1417643 83.4243164,16.3081055 C83.5861003,16.4744466 83.8173828,16.5576172 84.1181641,16.5576172 Z M84.9453125,25 L84.9453125,17.6035156 L83.2841797,17.6035156 L83.2841797,25 L84.9453125,25 Z M88.609375,25 L88.609375,19.7363281 C88.9375,19.1302083 89.4365234,18.8271484 90.1064453,18.8271484 C90.5667318,18.8271484 90.8982747,18.9399414 91.1010742,19.1655273 C91.3038737,19.3911133 91.4052734,19.7386068 91.4052734,20.2080078 L91.4052734,20.2080078 L91.4052734,25 L93.0664062,25 L93.0664062,20.1123047 C93.0390625,18.3486328 92.2552083,17.4667969 90.7148438,17.4667969 C89.8261719,17.4667969 89.1083984,17.7972005 88.5615234,18.4580078 L88.5615234,18.4580078 L88.5136719,17.6035156 L86.9482422,17.6035156 L86.9482422,25 L88.609375,25 Z M101.447266,25 L103.005859,19.9208984 L104.591797,25 L105.958984,25 L107.975586,17.6035156 L106.355469,17.6035156 L105.179688,22.7099609 L103.641602,17.6035156 L102.390625,17.6035156 L100.873047,22.6552734 L99.6767578,17.6035156 L98.0566406,17.6035156 L100.080078,25 L101.447266,25 Z M110.245117,16.5576172 C110.545898,16.5576172 110.77832,16.4744466 110.942383,16.3081055 C111.106445,16.1417643 111.188477,15.9332682 111.188477,15.6826172 C111.188477,15.4274089 111.106445,15.2154948 110.942383,15.046875 C110.77832,14.8782552 110.545898,14.7939453 110.245117,14.7939453 C109.944336,14.7939453 109.713053,14.8782552 109.55127,15.046875 C109.389486,15.2154948 109.308594,15.4274089 109.308594,15.6826172 C109.308594,15.9332682 109.389486,16.1417643 109.55127,16.3081055 C109.713053,16.4744466 109.944336,16.5576172 110.245117,16.5576172 Z M111.072266,25 L111.072266,17.6035156 L109.411133,17.6035156 L109.411133,25 L111.072266,25 Z M115.433594,25.1367188 C115.784505,25.1367188 116.149089,25.0843099 116.527344,24.9794922 L116.527344,24.9794922 L116.527344,23.6943359 C116.33138,23.7399089 116.137695,23.7626953 115.946289,23.7626953 C115.65918,23.7626953 115.459798,23.7000326 115.348145,23.574707 C115.236491,23.4493815 115.180664,23.2454427 115.180664,22.9628906 L115.180664,22.9628906 L115.180664,18.8339844 L116.486328,18.8339844 L116.486328,17.6035156 L115.180664,17.6035156 L115.180664,15.8056641 L113.519531,15.8056641 L113.519531,17.6035156 L112.302734,17.6035156 L112.302734,18.8339844 L113.519531,18.8339844 L113.519531,23.0244141 C113.519531,24.4326172 114.157552,25.1367188 115.433594,25.1367188 Z M119.610352,25 L119.610352,19.7158203 C119.938477,19.1233724 120.435221,18.8271484 121.100586,18.8271484 C121.528971,18.8271484 121.853678,18.9331055 122.074707,19.1450195 C122.295736,19.3569336 122.40625,19.718099 122.40625,20.2285156 L122.40625,20.2285156 L122.40625,25 L124.067383,25 L124.067383,20.1669922 C124.044596,18.366862 123.244792,17.4667969 121.667969,17.4667969 C120.838542,17.4667969 120.152669,17.78125 119.610352,18.4101562 L119.610352,18.4101562 L119.610352,14.5 L117.949219,14.5 L117.949219,25 L119.610352,25 Z M133.788086,25.1367188 C134.599284,25.1367188 135.323893,25.0159505 135.961914,24.7744141 C136.599935,24.5328776 137.098958,24.1774089 137.458984,23.7080078 L137.458984,23.7080078 L137.458984,19.8935547 L133.685547,19.8935547 L133.685547,21.2060547 L135.736328,21.2060547 L135.736328,23.1542969 C135.36263,23.5553385 134.733724,23.7558594 133.849609,23.7558594 C133.042969,23.7558594 132.412923,23.4584961 131.959473,22.8637695 C131.506022,22.269043 131.279297,21.4339193 131.279297,20.3583984 L131.279297,20.3583984 L131.279297,19.5927734 C131.292969,18.5126953 131.501465,17.6935221 131.904785,17.1352539 C132.308105,16.5769857 132.897135,16.2978516 133.671875,16.2978516 C134.870443,16.2978516 135.56543,16.8971354 135.756836,18.0957031 L135.756836,18.0957031 L137.452148,18.0957031 C137.319987,17.0657552 136.92806,16.2773438 136.276367,15.7304688 C135.624674,15.1835938 134.745117,14.9101562 133.637695,14.9101562 C132.347982,14.9101562 131.343099,15.3328451 130.623047,16.1782227 C129.902995,17.0236003 129.542969,18.1982422 129.542969,19.7021484 L129.542969,19.7021484 L129.542969,20.4814453 C129.556641,21.4202474 129.737793,22.2416992 130.086426,22.9458008 C130.435059,23.6499023 130.930664,24.1910807 131.573242,24.5693359 C132.21582,24.9475911 132.954102,25.1367188 133.788086,25.1367188 Z M142.551758,25.1367188 C143.235352,25.1367188 143.838053,24.9794922 144.359863,24.6650391 C144.881673,24.3505859 145.282715,23.90625 145.562988,23.3320312 C145.843262,22.7578125 145.983398,22.1061198 145.983398,21.3769531 L145.983398,21.3769531 L145.976562,20.9873047 C145.926432,19.9254557 145.590332,19.0732422 144.968262,18.4306641 C144.346191,17.7880859 143.536133,17.4667969 142.538086,17.4667969 C141.863607,17.4667969 141.266602,17.6228841 140.74707,17.9350586 C140.227539,18.2472331 139.824219,18.6938477 139.537109,19.2749023 C139.25,19.855957 139.106445,20.5087891 139.106445,21.2333984 L139.106445,21.2333984 L139.106445,21.3154297 C139.106445,22.4729818 139.419759,23.3992513 140.046387,24.0942383 C140.673014,24.7892253 141.508138,25.1367188 142.551758,25.1367188 Z M142.551758,23.8105469 C141.991211,23.8105469 141.553711,23.5952148 141.239258,23.1645508 C140.924805,22.7338867 140.767578,22.1380208 140.767578,21.3769531 C140.767578,20.5201823 140.927083,19.8764648 141.246094,19.4458008 C141.565104,19.0151367 141.995768,18.7998047 142.538086,18.7998047 C143.089518,18.7998047 143.525879,19.0185547 143.847168,19.4560547 C144.168457,19.8935547 144.329102,20.4860026 144.329102,21.2333984 C144.329102,22.0764974 144.173014,22.7167969 143.86084,23.1542969 C143.548665,23.5917969 143.112305,23.8105469 142.551758,23.8105469 Z M150.741211,25.1367188 C151.424805,25.1367188 152.027507,24.9794922 152.549316,24.6650391 C153.071126,24.3505859 153.472168,23.90625 153.752441,23.3320312 C154.032715,22.7578125 154.172852,22.1061198 154.172852,21.3769531 L154.172852,21.3769531 L154.166016,20.9873047 C154.115885,19.9254557 153.779785,19.0732422 153.157715,18.4306641 C152.535645,17.7880859 151.725586,17.4667969 150.727539,17.4667969 C150.05306,17.4667969 149.456055,17.6228841 148.936523,17.9350586 C148.416992,18.2472331 148.013672,18.6938477 147.726562,19.2749023 C147.439453,19.855957 147.295898,20.5087891 147.295898,21.2333984 L147.295898,21.2333984 L147.295898,21.3154297 C147.295898,22.4729818 147.609212,23.3992513 148.23584,24.0942383 C148.862467,24.7892253 149.697591,25.1367188 150.741211,25.1367188 Z M150.741211,23.8105469 C150.180664,23.8105469 149.743164,23.5952148 149.428711,23.1645508 C149.114258,22.7338867 148.957031,22.1380208 148.957031,21.3769531 C148.957031,20.5201823 149.116536,19.8764648 149.435547,19.4458008 C149.754557,19.0151367 150.185221,18.7998047 150.727539,18.7998047 C151.278971,18.7998047 151.715332,19.0185547 152.036621,19.4560547 C152.35791,19.8935547 152.518555,20.4860026 152.518555,21.2333984 C152.518555,22.0764974 152.362467,22.7167969 152.050293,23.1542969 C151.738118,23.5917969 151.301758,23.8105469 150.741211,23.8105469 Z M158.677734,27.9121094 C159.703125,27.9121094 160.517741,27.6318359 161.121582,27.0712891 C161.725423,26.5107422 162.027344,25.7451172 162.027344,24.7744141 L162.027344,24.7744141 L162.027344,17.6035156 L160.530273,17.6035156 L160.455078,18.3486328 C159.972005,17.7607422 159.308919,17.4667969 158.46582,17.4667969 C157.572591,17.4667969 156.855957,17.8097331 156.315918,18.4956055 C155.775879,19.1814779 155.505859,20.0986328 155.505859,21.2470703 C155.505859,22.4638672 155.780436,23.4163411 156.32959,24.1044922 C156.878743,24.7926432 157.586263,25.1367188 158.452148,25.1367188 C159.249674,25.1367188 159.887695,24.8701172 160.366211,24.3369141 L160.366211,24.3369141 L160.366211,24.8359375 C160.366211,25.4147135 160.206706,25.8533529 159.887695,26.1518555 C159.568685,26.4503581 159.133464,26.5996094 158.582031,26.5996094 C157.834635,26.5996094 157.205729,26.2965495 156.695312,25.6904297 L156.695312,25.6904297 L155.90918,26.6884766 C156.17806,27.0530599 156.571126,27.3481445 157.088379,27.5737305 C157.605632,27.7993164 158.135417,27.9121094 158.677734,27.9121094 Z M158.875977,23.7832031 C158.338216,23.7832031 157.917806,23.5701497 157.614746,23.144043 C157.311686,22.7179362 157.160156,22.1334635 157.160156,21.390625 C157.160156,20.547526 157.311686,19.9095052 157.614746,19.4765625 C157.917806,19.0436198 158.342773,18.8271484 158.889648,18.8271484 C159.55957,18.8271484 160.051758,19.1074219 160.366211,19.6679688 L160.366211,19.6679688 L160.366211,22.921875 C160.042643,23.4960938 159.545898,23.7832031 158.875977,23.7832031 Z M165.71875,25 L165.71875,14.5 L164.057617,14.5 L164.057617,25 L165.71875,25 Z M171.00293,25.1367188 C171.618164,25.1367188 172.173014,25.0148112 172.66748,24.7709961 C173.161947,24.527181 173.557292,24.1842448 173.853516,23.7421875 L173.853516,23.7421875 L172.958008,22.8876953 C172.479492,23.5029297 171.859701,23.8105469 171.098633,23.8105469 C170.556315,23.8105469 170.106283,23.6328125 169.748535,23.2773438 C169.390788,22.921875 169.186849,22.4388021 169.136719,21.828125 L169.136719,21.828125 L173.969727,21.828125 L173.969727,21.1582031 C173.969727,19.9824219 173.69515,19.0732422 173.145996,18.4306641 C172.596842,17.7880859 171.818685,17.4667969 170.811523,17.4667969 C170.17806,17.4667969 169.603841,17.6285807 169.088867,17.9521484 C168.573893,18.2757161 168.173991,18.7280273 167.88916,19.309082 C167.604329,19.8901367 167.461914,20.5498047 167.461914,21.2880859 L167.461914,21.2880859 L167.461914,21.4931641 C167.461914,22.5960286 167.7889,23.4790039 168.442871,24.1420898 C169.096842,24.8051758 169.950195,25.1367188 171.00293,25.1367188 Z M172.329102,20.6113281 L169.164062,20.6113281 C169.241536,20.0416667 169.42041,19.5973307 169.700684,19.2783203 C169.980957,18.9593099 170.348958,18.7998047 170.804688,18.7998047 C171.264974,18.7998047 171.625,18.9422201 171.884766,19.2270508 C172.144531,19.5118815 172.292643,19.9322917 172.329102,20.4882812 L172.329102,20.4882812 L172.329102,20.6113281 Z" id="SigninwithGoogle" fill="#FFFFFF" fill-rule="nonzero"></path>
            <rect id="button-bg-copy" fill="#FFFFFF" x="1" y="1" width="38" height="38" rx="1"></rect>
            <g id="logo_googleg_48dp" transform="translate(11.000000, 11.000000)">
                <path d="M17.64,9.20454545 C17.64,8.56636364 17.5827273,7.95272727 17.4763636,7.36363636 L9,7.36363636 L9,10.845 L13.8436364,10.845 C13.635,11.97 13.0009091,12.9231818 12.0477273,13.5613636 L12.0477273,15.8195455 L14.9563636,15.8195455 C16.6581818,14.2527273 17.64,11.9454545 17.64,9.20454545 L17.64,9.20454545 Z" id="Shape" fill="#4285F4"></path>
                <path d="M9,18 C11.43,18 13.4672727,17.1940909 14.9563636,15.8195455 L12.0477273,13.5613636 C11.2418182,14.1013636 10.2109091,14.4204545 9,14.4204545 C6.65590909,14.4204545 4.67181818,12.8372727 3.96409091,10.71 L0.957272727,10.71 L0.957272727,13.0418182 C2.43818182,15.9831818 5.48181818,18 9,18 L9,18 Z" id="Shape" fill="#34A853"></path>
                <path d="M3.96409091,10.71 C3.78409091,10.17 3.68181818,9.59318182 3.68181818,9 C3.68181818,8.40681818 3.78409091,7.83 3.96409091,7.29 L3.96409091,4.95818182 L0.957272727,4.95818182 C0.347727273,6.17318182 0,7.54772727 0,9 C0,10.4522727 0.347727273,11.8268182 0.957272727,13.0418182 L3.96409091,10.71 L3.96409091,10.71 Z" id="Shape" fill="#FBBC05"></path>
                <path d="M9,3.57954545 C10.3213636,3.57954545 11.5077273,4.03363636 12.4404545,4.92545455 L15.0218182,2.34409091 C13.4631818,0.891818182 11.4259091,0 9,0 C5.48181818,0 2.43818182,2.01681818 0.957272727,4.95818182 L3.96409091,7.29 C4.67181818,5.16272727 6.65590909,3.57954545 9,3.57954545 L9,3.57954545 Z" id="Shape" fill="#EA4335"></path>
                <polygon id="Shape" points="0 0 18 0 18 18 0 18"></polygon>
            </g>
        </g>
    </g>
</svg>